<?xml version="1.0" standalone="no"?><!DOCTYPE svg PUBLIC "-//W3C//DTD SVG 1.1//EN" "http://www.w3.org/Graphics/SVG/1.1/DTD/svg11.dtd"><svg t="1615473101179" class="icon" viewBox="0 0 1024 1024" version="1.1" xmlns="http://www.w3.org/2000/svg" p-id="5700" xmlns:xlink="http://www.w3.org/1999/xlink" width="200" height="200"><defs><style type="text/css"></style></defs><path d="M805.376 307.2h-128a25.6 25.6 0 0 1 0-51.2h102.4V153.6a25.6 25.6 0 0 1 25.6-25.6 25.6 25.6 0 0 1 25.6 25.6v128a25.6 25.6 0 0 1-25.6 25.6z" p-id="5701"></path><path d="M523.776 898.56A386.56 386.56 0 1 1 814.08 256a25.6 25.6 0 0 1 0 35.84 25.6 25.6 0 0 1-36.352 0 335.36 335.36 0 1 0 61.44 342.016 25.6 25.6 0 1 1 47.616 18.432 388.608 388.608 0 0 1-363.008 246.272z" p-id="5702"></path><path d="M662.016 470.016h-33.28V413.184a104.96 104.96 0 1 0-209.92 0v56.832h-33.28a37.376 37.376 0 0 0-36.864 37.376v161.28a36.864 36.864 0 0 0 36.864 36.864h276.48a37.376 37.376 0 0 0 37.376-36.864V507.392a37.376 37.376 0 0 0-37.376-37.376zM460.8 470.016V413.184a61.44 61.44 0 1 1 122.88 0v56.832z m193.536 43.52v148.48H392.192V512z" p-id="5703"></path></svg>