<?xml version="1.0" standalone="no"?><!DOCTYPE svg PUBLIC "-//W3C//DTD SVG 1.1//EN" "http://www.w3.org/Graphics/SVG/1.1/DTD/svg11.dtd"><svg t="1615473143999" class="icon" viewBox="0 0 1024 1024" version="1.1" xmlns="http://www.w3.org/2000/svg" p-id="5827" xmlns:xlink="http://www.w3.org/1999/xlink" width="200" height="200"><defs><style type="text/css"></style></defs><path d="M819.2 911.36H204.8c-25.6 0-51.2-20.48-51.2-51.2V215.04c0-25.6 20.48-51.2 51.2-51.2h122.88v51.2H204.8v640h614.4V215.04h-122.88v-51.2H819.2c25.6 0 51.2 20.48 51.2 51.2v640c0 30.72-20.48 56.32-51.2 56.32z" p-id="5828"></path><path d="M675.84 271.36H348.16c-30.72 0-51.2-20.48-51.2-51.2v-51.2c0-30.72 20.48-51.2 51.2-51.2h322.56c30.72 0 51.2 20.48 51.2 51.2v51.2c5.12 25.6-20.48 51.2-46.08 51.2z m0-51.2v25.6-25.6z m-327.68-51.2v51.2h322.56v-51.2H348.16z" p-id="5829"></path><path d="M522.24 604.16c-81.92 0-148.48-66.56-148.48-148.48S440.32 307.2 522.24 307.2c81.92 0 148.48 66.56 148.48 148.48s-66.56 148.48-148.48 148.48z m0-245.76c-56.32 0-97.28 40.96-97.28 97.28s46.08 97.28 97.28 97.28c56.32 0 97.28-46.08 97.28-97.28S578.56 358.4 522.24 358.4z" p-id="5830"></path><path d="M307.2 819.2c-15.36 0-25.6-10.24-25.6-25.6 0-133.12 107.52-240.64 240.64-240.64 15.36 0 25.6 10.24 25.6 25.6s-10.24 25.6-25.6 25.6c-102.4 0-189.44 81.92-189.44 189.44 0 15.36-10.24 25.6-25.6 25.6z" p-id="5831"></path><path d="M716.8 819.2c-15.36 0-25.6-10.24-25.6-25.6 0-102.4-87.04-189.44-189.44-189.44-15.36 0-25.6-10.24-25.6-25.6s10.24-25.6 25.6-25.6c133.12 0 240.64 107.52 240.64 240.64 0 15.36-10.24 25.6-25.6 25.6z" p-id="5832"></path></svg>