<?xml version="1.0" standalone="no"?><!DOCTYPE svg PUBLIC "-//W3C//DTD SVG 1.1//EN" "http://www.w3.org/Graphics/SVG/1.1/DTD/svg11.dtd"><svg t="1615467419241" class="icon" viewBox="0 0 1024 1024" version="1.1" xmlns="http://www.w3.org/2000/svg" p-id="9856" xmlns:xlink="http://www.w3.org/1999/xlink" width="200" height="200"><defs><style type="text/css"></style></defs><path d="M392.192 179.2a25.6 25.6 0 0 0-25.6-25.6H179.2a25.6 25.6 0 0 0-25.6 25.6v187.392a25.6 25.6 0 0 0 51.2 0V241.152l143.36 143.36a26.112 26.112 0 0 0 18.432 7.68 25.088 25.088 0 0 0 17.92-7.68 25.6 25.6 0 0 0 0-36.352L241.152 204.8h125.44a25.6 25.6 0 0 0 25.6-25.6zM384.512 639.488a25.6 25.6 0 0 0-36.352 0L204.8 782.848v-125.44a25.6 25.6 0 0 0-51.2 0v187.392a25.6 25.6 0 0 0 25.6 25.6h187.392a25.6 25.6 0 0 0 0-51.2H241.152l143.36-143.36a25.6 25.6 0 0 0 0-36.352zM844.8 153.6h-187.392a25.6 25.6 0 0 0 0 51.2h125.44l-143.36 143.36a25.6 25.6 0 0 0 0 36.352 25.088 25.088 0 0 0 17.92 7.68 26.112 26.112 0 0 0 18.432-7.68l143.36-143.36v125.44a25.6 25.6 0 0 0 51.2 0V179.2a25.6 25.6 0 0 0-25.6-25.6zM844.8 631.808a25.6 25.6 0 0 0-25.6 25.6v125.44l-143.36-143.36a25.6 25.6 0 1 0-36.352 36.352l143.36 143.36h-125.44a25.6 25.6 0 0 0 0 51.2h187.392a25.6 25.6 0 0 0 25.6-25.6v-187.392a25.6 25.6 0 0 0-25.6-25.6z" p-id="9857"></path></svg>