<?xml version="1.0" standalone="no"?><!DOCTYPE svg PUBLIC "-//W3C//DTD SVG 1.1//EN" "http://www.w3.org/Graphics/SVG/1.1/DTD/svg11.dtd"><svg t="1615467488786" class="icon" viewBox="0 0 1024 1024" version="1.1" xmlns="http://www.w3.org/2000/svg" p-id="10107" xmlns:xlink="http://www.w3.org/1999/xlink" width="200" height="200"><defs><style type="text/css"></style></defs><path d="M911.872 435.712a48.128 48.128 0 0 0-47.616-38.912h-2.56a86.528 86.528 0 0 1-74.24-131.584 48.128 48.128 0 0 0-9.728-60.416 401.408 401.408 0 0 0-132.096-76.288 47.616 47.616 0 0 0-57.856 22.528 86.016 86.016 0 0 1-75.776 44.032 87.552 87.552 0 0 1-76.288-45.056 47.104 47.104 0 0 0-57.344-22.528A402.944 402.944 0 0 0 246.272 204.8a47.104 47.104 0 0 0-9.728 60.928 86.528 86.528 0 0 1-74.24 131.072h-3.072a48.128 48.128 0 0 0-47.104 38.912A414.72 414.72 0 0 0 105.472 512a380.928 380.928 0 0 0 6.656 76.288 48.128 48.128 0 0 0 47.616 38.912 86.528 86.528 0 0 1 74.24 131.584 48.128 48.128 0 0 0 12.288 60.416 401.408 401.408 0 0 0 132.096 76.288 47.616 47.616 0 0 0 57.856-22.528 86.016 86.016 0 0 1 75.776-44.032 87.552 87.552 0 0 1 76.288 45.056 46.592 46.592 0 0 0 41.472 25.088 54.272 54.272 0 0 0 15.872 0A402.944 402.944 0 0 0 777.728 819.2a47.104 47.104 0 0 0 9.728-60.928 86.528 86.528 0 0 1 74.24-131.584h3.072a48.128 48.128 0 0 0 47.104-38.912 422.4 422.4 0 0 0 6.656-75.776 380.928 380.928 0 0 0-6.656-76.288z m-169.472 347.136a354.816 354.816 0 0 1-111.104 64.512A136.192 136.192 0 0 0 512 778.24a137.216 137.216 0 0 0-119.296 69.12 354.816 354.816 0 0 1-111.104-64.512 138.24 138.24 0 0 0-119.296-204.8A391.168 391.168 0 0 1 156.16 512a335.872 335.872 0 0 1 6.144-64.512 137.728 137.728 0 0 0 119.296-204.8 345.6 345.6 0 0 1 111.104-66.048A136.192 136.192 0 0 0 512 245.76a137.216 137.216 0 0 0 119.296-69.12 345.6 345.6 0 0 1 111.104 64.512 138.24 138.24 0 0 0 119.296 204.8A381.44 381.44 0 0 1 870.4 512a372.224 372.224 0 0 1-5.632 64 138.24 138.24 0 0 0-119.296 204.8z" p-id="10108"></path><path d="M548.864 373.76a142.848 142.848 0 1 0-73.728 276.48 153.6 153.6 0 0 0 36.864 5.12 143.36 143.36 0 0 0 36.864-281.6z m-81.92 59.904a92.672 92.672 0 0 1 45.056-11.776 76.288 76.288 0 0 1 23.552 3.072 90.112 90.112 0 1 1-68.608 8.704z" p-id="10109"></path></svg>