<?xml version="1.0" standalone="no"?><!DOCTYPE svg PUBLIC "-//W3C//DTD SVG 1.1//EN" "http://www.w3.org/Graphics/SVG/1.1/DTD/svg11.dtd"><svg t="1615467461485" class="icon" viewBox="0 0 1024 1024" version="1.1" xmlns="http://www.w3.org/2000/svg" p-id="9981" xmlns:xlink="http://www.w3.org/1999/xlink" width="200" height="200"><defs><style type="text/css"></style></defs><path d="M468.48 801.28a332.8 332.8 0 1 1 332.8-332.8 333.312 333.312 0 0 1-332.8 332.8z m0-614.4a281.6 281.6 0 1 0 281.6 281.6 282.112 282.112 0 0 0-281.6-281.6z" p-id="9982"></path><path d="M862.522603 898.973685m-18.101934-18.101933l-168.710021-168.710021q-18.101934-18.101934 0-36.203867l0 0q18.101934-18.101934 36.203867 0l168.710021 168.710021q18.101934 18.101934 0 36.203867l0 0q-18.101934 18.101934-36.203867 0Z" p-id="9983"></path></svg>