<?xml version="1.0" standalone="no"?><!DOCTYPE svg PUBLIC "-//W3C//DTD SVG 1.1//EN" "http://www.w3.org/Graphics/SVG/1.1/DTD/svg11.dtd"><svg t="1615467791623" class="icon" viewBox="0 0 1024 1024" version="1.1" xmlns="http://www.w3.org/2000/svg" p-id="10361" xmlns:xlink="http://www.w3.org/1999/xlink" width="200" height="200"><defs><style type="text/css"></style></defs><path d="M844.8 870.4a24.064 24.064 0 0 1-17.92-7.68L680.96 716.8a25.6 25.6 0 0 1 35.84-35.84l145.408 145.92a25.6 25.6 0 0 1-17.92 43.52z" p-id="10362"></path><path d="M657.408 870.4a25.6 25.6 0 0 1-25.6-25.6v-187.392a26.112 26.112 0 0 1 25.6-25.6h187.392a25.6 25.6 0 0 1 25.6 25.6 25.6 25.6 0 0 1-25.6 25.6h-161.792v161.792a25.6 25.6 0 0 1-25.6 25.6z" p-id="10363"></path><path d="M699.392 350.208a27.648 27.648 0 0 1-18.432-7.168 26.112 26.112 0 0 1 0-36.352l145.92-145.408a25.088 25.088 0 0 1 35.84 35.84L716.8 343.04a27.648 27.648 0 0 1-17.408 7.168z" p-id="10364"></path><path d="M844.8 392.192h-187.392a26.112 26.112 0 0 1-25.6-25.6V179.2a25.6 25.6 0 0 1 25.6-25.6 25.6 25.6 0 0 1 25.6 25.6v161.792h161.792a25.6 25.6 0 0 1 25.6 25.6 26.112 26.112 0 0 1-25.6 25.6z" p-id="10365"></path><path d="M179.2 870.4a24.064 24.064 0 0 1-17.92-7.68 24.576 24.576 0 0 1 0-35.84L307.2 680.96a25.6 25.6 0 0 1 35.84 35.84l-145.92 145.92a24.064 24.064 0 0 1-17.92 7.68z" p-id="10366"></path><path d="M366.592 870.4a25.6 25.6 0 0 1-25.6-25.6v-161.792H179.2a25.6 25.6 0 0 1-25.6-25.6 26.112 26.112 0 0 1 25.6-25.6h187.392a26.112 26.112 0 0 1 25.6 25.6v187.392a25.6 25.6 0 0 1-25.6 25.6z" p-id="10367"></path><path d="M324.608 350.208A27.648 27.648 0 0 1 307.2 343.04L161.28 197.12a25.088 25.088 0 0 1 35.84-35.84L343.04 307.2a26.112 26.112 0 0 1 0 36.352 27.648 27.648 0 0 1-18.432 6.656z" p-id="10368"></path><path d="M366.592 392.192H179.2a26.112 26.112 0 0 1-25.6-25.6 25.6 25.6 0 0 1 25.6-25.6h161.792V179.2a25.6 25.6 0 0 1 25.6-25.6 25.6 25.6 0 0 1 25.6 25.6v187.392a26.112 26.112 0 0 1-25.6 25.6z" p-id="10369"></path></svg>