<?xml version="1.0" standalone="no"?><!DOCTYPE svg PUBLIC "-//W3C//DTD SVG 1.1//EN" "http://www.w3.org/Graphics/SVG/1.1/DTD/svg11.dtd"><svg t="1615467414437" class="icon" viewBox="0 0 1024 1024" version="1.1" xmlns="http://www.w3.org/2000/svg" p-id="9730" xmlns:xlink="http://www.w3.org/1999/xlink" width="200" height="200"><defs><style type="text/css"></style></defs><path d="M514.56 392.192a26.112 26.112 0 0 0 25.6-25.6V179.2a25.6 25.6 0 0 0-25.6-25.6 25.6 25.6 0 0 0-25.6 25.6v187.392a25.6 25.6 0 0 0 25.6 25.6z" p-id="9731"></path><path d="M716.8 248.832a25.6 25.6 0 0 0-31.232 40.448 298.496 298.496 0 0 1 115.2 235.52A289.792 289.792 0 0 1 517.12 819.2H512a286.72 286.72 0 0 1-200.192-80.896 289.792 289.792 0 0 1-88.064-204.8v-10.752a298.496 298.496 0 0 1 115.2-233.472 25.6 25.6 0 0 0-31.744-40.448 348.672 348.672 0 0 0-135.168 274.944v12.288a338.944 338.944 0 0 0 102.4 238.592A334.848 334.848 0 0 0 512 870.4h6.144a340.48 340.48 0 0 0 333.312-346.112A349.696 349.696 0 0 0 716.8 248.832z" p-id="9732"></path></svg>