<?xml version="1.0" standalone="no"?><!DOCTYPE svg PUBLIC "-//W3C//DTD SVG 1.1//EN" "http://www.w3.org/Graphics/SVG/1.1/DTD/svg11.dtd"><svg t="1615467515116" class="icon" viewBox="0 0 1024 1024" version="1.1" xmlns="http://www.w3.org/2000/svg" p-id="10233" xmlns:xlink="http://www.w3.org/1999/xlink" width="200" height="200"><defs><style type="text/css"></style></defs><path d="M844.8 230.4v481.28h-256l-14.848 22.528L512 824.32l-59.904-90.112-14.848-22.528h-256V230.4h665.6m0-51.2H179.2a51.2 51.2 0 0 0-51.2 51.2v481.28a51.2 51.2 0 0 0 51.2 51.2H409.6l59.904 89.6a51.2 51.2 0 0 0 84.992 0L614.4 762.88h230.4a51.2 51.2 0 0 0 51.2-51.2V230.4a51.2 51.2 0 0 0-51.2-51.2z" p-id="10234"></path><path d="M512 471.04m-40.96 0a40.96 40.96 0 1 0 81.92 0 40.96 40.96 0 1 0-81.92 0Z" p-id="10235"></path><path d="M332.8 471.04m-40.96 0a40.96 40.96 0 1 0 81.92 0 40.96 40.96 0 1 0-81.92 0Z" p-id="10236"></path><path d="M691.2 471.04m-40.96 0a40.96 40.96 0 1 0 81.92 0 40.96 40.96 0 1 0-81.92 0Z" p-id="10237"></path></svg>